<svg xmlns="http://www.w3.org/2000/svg" viewBox="0 0 154 172"><path fill="#333" d="M74 138.7c-15 0-29-5.8-39.6-16.4-21.8-21.8-21.8-57.4 0-79.2C45 32.5 59.1 26.7 74 26.7c15 0 29 5.8 39.6 16.4 21.8 21.8 21.8 57.4 0 79.2C103 132.8 89 138.7 74 138.7zm0-107c-13.6 0-26.4 5.3-36.1 14.9-19.9 19.9-19.9 52.2 0 72.1 9.6 9.6 22.4 14.9 36.1 14.9 13.6 0 26.4-5.3 36.1-14.9 19.9-19.9 19.9-52.2 0-72.1C100.4 37 87.6 31.7 74 31.7z"/><path fill="#333" d="M137.5 148.6c-.6 0-1.3-.2-1.8-.7l-25.6-25.6c-1-1-1-2.6 0-3.5 1-1 2.6-1 3.5 0l25.6 25.6c1 1 1 2.6 0 3.5-.4.5-1.1.7-1.7.7z"/></svg>