<svg xmlns="http://www.w3.org/2000/svg" xmlns:xlink="http://www.w3.org/1999/xlink" version="1.1" id="Слой_1" x="0px" y="0px" viewBox="0 0 154 172" enable-background="new 0 0 154 172" xml:space="preserve">
<g>
  <g>
    <path fill="#333333" d="M74,138.7c-15,0-29-5.8-39.6-16.4c-21.8-21.8-21.8-57.4,0-79.2C45,32.5,59.1,26.7,74,26.7    c15,0,29,5.8,39.6,16.4c21.8,21.8,21.8,57.4,0,79.2C103,132.8,89,138.7,74,138.7z M74,31.7c-13.6,0-26.4,5.3-36.1,14.9    c-19.9,19.9-19.9,52.2,0,72.1c9.6,9.6,22.4,14.9,36.1,14.9c13.6,0,26.4-5.3,36.1-14.9c19.9-19.9,19.9-52.2,0-72.1    C100.4,37,87.6,31.7,74,31.7z"/>
  </g>
  <g>
    <path fill="#333333" d="M137.5,148.6c-0.6,0-1.3-0.2-1.8-0.7l-25.6-25.6c-1-1-1-2.6,0-3.5c1-1,2.6-1,3.5,0l25.6,25.6    c1,1,1,2.6,0,3.5C138.8,148.4,138.1,148.6,137.5,148.6z"/>
  </g>
</g>
</svg>